<?xml version="1.0" standalone="no"?>
<!DOCTYPE svg PUBLIC "-//W3C//DTD SVG 1.1//EN" "http://www.w3.org/Graphics/SVG/1.1/DTD/svg11.dtd" >
<svg xmlns="http://www.w3.org/2000/svg">
<metadata></metadata>
<defs>
<font id="disco_deckregular" horiz-adv-x="1392" >
<font-face units-per-em="2048" ascent="1638" descent="-410" />
<missing-glyph horiz-adv-x="794" />
<glyph horiz-adv-x="2048" />
<glyph horiz-adv-x="2048" />
<glyph unicode="&#xd;" horiz-adv-x="1024" />
<glyph unicode=" "  horiz-adv-x="794" />
<glyph unicode="&#x09;" horiz-adv-x="794" />
<glyph unicode="&#xa0;" horiz-adv-x="794" />
<glyph unicode="!" horiz-adv-x="573" d="M0 205q0 -37 17.5 -74t47 -66.5t66.5 -47t74 -17.5q39 0 75.5 17.5t65.5 47t46.5 66.5t17.5 74q0 39 -17.5 75.5t-46.5 65.5t-65.5 46.5t-75.5 17.5q-37 0 -74 -17.5t-66.5 -46.5t-47 -65.5t-17.5 -75.5zM0 614h410v615h-410v-615z" />
<glyph unicode="&#x22;" horiz-adv-x="1187" d="M0 819h410v205q0 39 -17.5 76t-46.5 65.5t-65.5 46t-75.5 17.5q-37 0 -74 -17.5t-66.5 -46t-47 -65.5t-17.5 -76v-205zM614 819h410v205q0 39 -17.5 76t-47 65.5t-66.5 46t-74 17.5q-39 0 -75.5 -17.5t-65.5 -46t-46.5 -65.5t-17.5 -76v-205z" />
<glyph unicode="#" horiz-adv-x="1187" d="M0 510h205v-102h205v102h204v-102h205v102h205v205h-205v205h205v204h-205v103h-205v-103h-204v103h-205v-103h-205v-204h205v-205h-205v-205z" />
<glyph unicode="$" d="M0 0h410v-205h409v205q193 0 301.5 108.5t108.5 301.5q0 104 -27.5 176.5t-81 119t-129.5 71t-172 34.5v8h410v410h-410v205h-409v-205q-193 0 -301.5 -108.5t-108.5 -301.5q0 -61 29.5 -121.5t84 -111.5t130 -91t166.5 -61v-24h-410v-410z" />
<glyph unicode="%" horiz-adv-x="1781" d="M0 926q0 -68 22.5 -124.5t63.5 -97t97.5 -63.5t123.5 -23q66 0 122 23t97 63.5t64.5 97t23.5 124.5t-22.5 124t-63.5 97t-97 63.5t-124 22.5t-124 -23.5t-97 -64.5t-63.5 -97.5t-22.5 -121.5zM432 0h379l410 1229h-410zM1004 307q0 -68 22.5 -124t63 -97t97 -63.5 t124.5 -22.5q66 0 122 22.5t97 63.5t64.5 97t23.5 124t-22.5 124t-63.5 97t-97.5 63.5t-123.5 22.5q-68 0 -124.5 -23.5t-97 -64.5t-63 -97t-22.5 -122z" />
<glyph unicode="&#x26;" d="M0 307q0 -307 614 -307h615l-531 616q154 0 256.5 18.5t163 57.5t86 95.5t25.5 134.5q0 307 -615 307q-614 0 -614 -307q0 -76 17.5 -132.5t68.5 -94.5t142 -57.5t237 -21.5q-145 -2 -236.5 -23.5t-142.5 -60t-68.5 -95t-17.5 -130.5z" />
<glyph unicode="'" horiz-adv-x="573" d="M0 819h410v205q0 39 -17.5 76t-46.5 65.5t-65.5 46t-75.5 17.5q-37 0 -74 -17.5t-66.5 -46t-47 -65.5t-17.5 -76v-205z" />
<glyph unicode="(" horiz-adv-x="778" d="M0 614q0 -133 46 -245.5t128 -194.5t194.5 -128t245.5 -46v1229q-133 0 -245.5 -46t-194.5 -128t-128 -194.5t-46 -246.5z" />
<glyph unicode=")" horiz-adv-x="778" d="M0 0q133 0 245.5 46t194.5 128t128 194.5t46 245.5t-46 246t-128 195t-194.5 128t-245.5 46v-1229z" />
<glyph unicode="*" horiz-adv-x="880" d="M0 618l358 205l359 -205h-717zM0 823v277h717v-277h-717zM0 1305h717l-359 -205z" />
<glyph unicode="+" horiz-adv-x="1187" d="M0 410h307v-205h410v205h307v409h-307v205h-410v-205h-307v-409z" />
<glyph unicode="," horiz-adv-x="579" d="M0 -88q0 -35 3 -67.5t12.5 -58.5t26.5 -41t46 -15q39 0 95.5 27.5t107.5 68.5t88 88t37 86v221h-8q-4 37 -22.5 71t-46.5 60.5t-62.5 42t-71.5 15.5t-74 -17.5t-66.5 -46.5t-47 -65.5t-17.5 -75.5v-293z" />
<glyph unicode="-" horiz-adv-x="1187" d="M0 410h1024v409h-1024v-409z" />
<glyph unicode="." horiz-adv-x="573" d="M0 205q0 -37 17.5 -74t47 -66.5t66.5 -47t74 -17.5q39 0 75.5 17.5t65.5 47t46.5 66.5t17.5 74q0 39 -17.5 75.5t-46.5 65.5t-65.5 46.5t-75.5 17.5q-37 0 -74 -17.5t-66.5 -46.5t-47 -65.5t-17.5 -75.5z" />
<glyph unicode="/" horiz-adv-x="952" d="M0 0h379l409 1229h-409z" />
<glyph unicode="0" d="M0 614q0 -133 46 -245.5t128 -194.5t194.5 -128t245.5 -46t246 46t195 128t128 194.5t46 245.5q0 135 -46 248t-127 194t-193.5 127t-248.5 46q-133 0 -245.5 -46t-194.5 -128t-128 -194.5t-46 -246.5z" />
<glyph unicode="1" horiz-adv-x="573" d="M0 0h410v1229h-410v-1229z" />
<glyph unicode="2" horiz-adv-x="1394" d="M0 0v410v819h614q145 2 260 -33t195 -92t121 -132t39 -153q0 -80 -40 -153.5t-119 -131t-193.5 -91t-262.5 -33.5h615v-410h-1229z" />
<glyph unicode="3" d="M0 0h614q614 0 615 307q-10 111 -39 185.5t-82 119.5t-134 64.5t-198 19.5h-49l471 547h-1198v-1243z" />
<glyph unicode="4" d="M0 410v409l819 410h410v-1229h-410v410h-819z" />
<glyph unicode="5" d="M0 0v410h614l-614 409v410h1229v-410l-150 -102q150 -180 150 -266q0 -78 -41 -160t-120 -147.5t-193.5 -106.5t-260.5 -37h-614z" />
<glyph unicode="6" d="M0 307v512l410 410h614l-410 -410q117 0 200 -3t134 -7q104 -10 168 -55q31 -23 52.5 -57.5t35 -88t19.5 -127t6 -174.5q0 -307 -615 -307q-614 0 -614 307z" />
<glyph unicode="7" d="M0 653v580h614h615v-1233h-613v653h-616z" />
<glyph unicode="8" d="M0 307q0 74 28.5 131.5t92 96t166 60t248.5 23.5q-145 2 -248 21.5t-166.5 56.5t-92 93.5t-28.5 132.5q0 307 614 307t615 -307q0 -76 -25.5 -132.5t-86 -93.5t-160 -56t-244.5 -22q145 -2 244.5 -23.5t160 -60t86 -96t25.5 -131.5q-1 -307 -615 -307t-614 307z" />
<glyph unicode="9" d="M0 922q0 307 614 307t615 -307v-512l-410 -410h-614l409 410q-156 0 -271.5 23.5t-191 81.5t-113.5 156.5t-38 250.5z" />
<glyph unicode=":" horiz-adv-x="573" d="M0 205q0 -37 17.5 -74t47 -66.5t66.5 -47t74 -17.5q39 0 75.5 17.5t65.5 47t46.5 66.5t17.5 74q0 39 -17.5 75.5t-46.5 65.5t-65.5 46.5t-75.5 17.5q-37 0 -74 -17.5t-66.5 -46.5t-47 -65.5t-17.5 -75.5zM0 819q0 -39 17.5 -75.5t47 -65.5t66.5 -46.5t74 -17.5 q39 0 75.5 17.5t65.5 46.5t46.5 65.5t17.5 75.5q0 37 -17.5 74t-46.5 66.5t-65.5 47t-75.5 17.5q-37 0 -74 -17.5t-66.5 -47t-47 -66.5t-17.5 -74z" />
<glyph unicode=";" horiz-adv-x="581" d="M0 -88q0 -35 3 -67.5t12.5 -58.5t26.5 -41t46 -15q39 0 95.5 27.5t107.5 68.5t88 88t37 86v221h-8q-4 37 -22.5 71t-46.5 60.5t-62.5 42t-71.5 15.5t-74 -17.5t-66.5 -46.5t-47 -65.5t-17.5 -75.5v-293zM8 819q0 -39 17.5 -75.5t47 -65.5t66.5 -46.5t74 -17.5 q39 0 76 17.5t65.5 46.5t46 65.5t17.5 75.5q0 37 -17.5 74t-46 66.5t-65.5 47t-76 17.5q-37 0 -74 -17.5t-66.5 -47t-47 -66.5t-17.5 -74z" />
<glyph unicode="&#x3c;" horiz-adv-x="778" d="M0 614l614 -614v1229z" />
<glyph unicode="=" horiz-adv-x="1187" d="M0 410v204h1024v-204h-1024zM0 752v204h1024v-204h-1024z" />
<glyph unicode="&#x3e;" horiz-adv-x="778" d="M0 0l614 614l-614 615v-1229z" />
<glyph unicode="?" d="M0 205q0 -37 17.5 -74t47 -66.5t66.5 -47t74 -17.5q39 0 75.5 17.5t65.5 47t46.5 66.5t17.5 74q0 39 -17.5 75.5t-46.5 65.5t-65.5 46.5t-75.5 17.5q-37 0 -74 -17.5t-66.5 -46.5t-47 -65.5t-17.5 -75.5zM0 614h614q193 0 291 7q109 6 174 32q74 29 112 92.5t38 176.5 t-38 176t-114 92q-37 14 -80 22.5t-92 10.5q-98 6 -291 6h-614v-615z" />
<glyph unicode="@" d="M0 614q0 -133 46 -245.5t128 -194.5t194.5 -128t245.5 -46t246 46t195 128t128 194.5t46 245.5q0 135 -46 248t-127 194t-193.5 127t-248.5 46q-133 0 -245.5 -46t-194.5 -128t-128 -194.5t-46 -246.5zM205 410l409 614l410 -614h-819z" />
<glyph unicode="A" horiz-adv-x="1398" d="M0 0l614 1233l621 -1233h-1235z" />
<glyph unicode="B" d="M0 0h614q614 0 615 307q0 76 -20.5 133.5t-76 95t-152.5 56t-251 18.5q154 0 251 19.5t152.5 59.5t76 97.5t20.5 135.5q0 307 -615 307h-614v-1229z" />
<glyph unicode="C" horiz-adv-x="1394" d="M2 614v-11q0 -111 39 -217q41 -112 120 -199t193 -139q106 -48 241 -48h21h615v1229h-615q-150 0 -264 -51.5t-192 -136.5t-118 -196.5t-40 -230.5z" />
<glyph unicode="D" horiz-adv-x="1394" d="M0 0v1229h614q150 0 265.5 -51.5t192.5 -136.5t117 -196.5t40 -230.5v-11q0 -111 -39 -217q-41 -112 -120 -199q-80 -87 -194 -139q-106 -48 -241 -48h-21h-614z" />
<glyph unicode="E" d="M0 0v1233h612v-418h308v-387h309v-428h-1229z" />
<glyph unicode="F" horiz-adv-x="1396" d="M0 0v1233h1233v-393h-322v-396h-299v-444h-612z" />
<glyph unicode="G" d="M0 614q0 -133 46 -245.5t128 -194.5t194.5 -128t245.5 -46l205 82v-82h410v616l-49 105l-25 106q-72 162 -127 217q-59 57 -123 99q-66 41 -141.5 63.5t-149.5 22.5q-133 0 -245.5 -46t-194.5 -128t-128 -194.5t-46 -246.5z" />
<glyph unicode="H" horiz-adv-x="1468" d="M0 0h618v410h74v-410h615v1239h-615v-444h-74v442h-618v-1237z" />
<glyph unicode="I" horiz-adv-x="837" d="M57 0v1229h617v-1229h-617z" />
<glyph unicode="J" d="M0 614h614v615h615v-615q0 -133 -46 -245.5t-128 -194.5t-194.5 -128t-246.5 -46q-133 0 -245.5 46t-194.5 128t-128 194.5t-46 245.5z" />
<glyph unicode="K" d="M0 0h1229l-615 614l619 615h-1233v-1229z" />
<glyph unicode="L" d="M0 0v1233h612v-653h617v-580h-1229z" />
<glyph unicode="M" d="M0 0v1229l614 -615l615 615v-1229h-1229z" />
<glyph unicode="N" d="M0 0h1229v1233h-615v-619l-614 615v-1229z" />
<glyph unicode="O" d="M0 614q0 133 46 246t128 195t194.5 128t245.5 46q135 0 248 -46t194 -127t127 -194t46 -248q0 -133 -46 -245.5t-128 -194.5t-194.5 -128t-246.5 -46q-133 0 -245.5 46t-194.5 128t-128 194.5t-46 245.5z" />
<glyph unicode="P" horiz-adv-x="1394" d="M0 0h614v410q147 0 262 33.5t194 91t119 131t40 153.5v7q0 74 -39 146q-41 75 -121 133t-194.5 93t-260.5 35h-614v-1233z" />
<glyph unicode="Q" d="M0 614q0 -172 78 -317q80 -139 219 -219q135 -74 483 -74h29v-84h420v80v614q0 135 -46 248t-127 194t-193.5 127t-248.5 46q-133 0 -245.5 -46t-194.5 -128t-128 -194.5t-46 -246.5z" />
<glyph unicode="R" horiz-adv-x="1394" d="M0 0v1233h610q147 0 263 -36t196 -94.5t121 -132.5q39 -71 39 -144v-7q0 -104 -72 -201q-70 -94 -348 -206l395 -412h-1204z" />
<glyph unicode="S" d="M0 0v410l176 106q-86 82 -131 154.5t-45 148.5q0 193 108.5 301.5t301.5 108.5h819v-377l-197 -104q197 -166 197 -338q0 -193 -108.5 -301.5t-301.5 -108.5h-819z" />
<glyph unicode="T" horiz-adv-x="1396" d="M0 688v545h1233v-545h-322v-688h-612v688h-299z" />
<glyph unicode="U" d="M0 614q0 -133 46 -245.5t128 -194.5t194.5 -128t245.5 -46t246 46t195 128t128 194.5t46 245.5v615h-1229v-615z" />
<glyph unicode="V" horiz-adv-x="1390" d="M0 1229l1227 -2l-613 -1227z" />
<glyph unicode="W" d="M0 0l614 614l615 -614v1229h-1229v-1229z" />
<glyph unicode="X" horiz-adv-x="1417" d="M0 0l449 600l-449 633h1253l-473 -633l449 -600h-1229z" />
<glyph unicode="Y" horiz-adv-x="1423" d="M0 1233h1260l-340 -545v-688h-619v688z" />
<glyph unicode="Z" d="M0 0h1229v410l-176 106q86 82 131 154.5t49 148.5v410h-1233v-377l197 -104q-197 -166 -197 -338v-410z" />
<glyph unicode="[" horiz-adv-x="778" d="M0 0h614v410h-204v409h204v410h-614v-1229z" />
<glyph unicode="\" horiz-adv-x="983" d="M0 1229l410 -1229h409l-409 1229h-410z" />
<glyph unicode="]" horiz-adv-x="778" d="M0 0h614v1229h-614v-410h205v-409h-205v-410z" />
<glyph unicode="^" horiz-adv-x="983" d="M0 819h819l-409 410z" />
<glyph unicode="_" horiz-adv-x="1597" d="M0 -125h1434v-205h-1434v205z" />
<glyph unicode="`" horiz-adv-x="571" d="M0 1233h408v-414z" />
<glyph unicode="a" horiz-adv-x="1398" d="M0 0l614 1233l621 -1233h-1235z" />
<glyph unicode="b" d="M0 0h614q614 0 615 307q0 76 -20.5 133.5t-76 95t-152.5 56t-251 18.5q154 0 251 19.5t152.5 59.5t76 97.5t20.5 135.5q0 307 -615 307h-614v-1229z" />
<glyph unicode="c" horiz-adv-x="1394" d="M2 614v-11q0 -111 39 -217q41 -112 120 -199t193 -139q106 -48 241 -48h21h615v1229h-615q-150 0 -264 -51.5t-192 -136.5t-118 -196.5t-40 -230.5z" />
<glyph unicode="d" horiz-adv-x="1394" d="M0 0v1229h614q150 0 265.5 -51.5t192.5 -136.5t117 -196.5t40 -230.5v-11q0 -111 -39 -217q-41 -112 -120 -199q-80 -87 -194 -139q-106 -48 -241 -48h-21h-614z" />
<glyph unicode="e" d="M0 0v1233h612v-418h308v-387h309v-428h-1229z" />
<glyph unicode="f" horiz-adv-x="1396" d="M0 0v1233h1233v-393h-322v-396h-299v-444h-612z" />
<glyph unicode="g" d="M0 614q0 -133 46 -245.5t128 -194.5t194.5 -128t245.5 -46l205 102v-102h414v1229h-619q-133 0 -245.5 -46t-194.5 -128t-128 -194.5t-46 -246.5z" />
<glyph unicode="h" horiz-adv-x="1468" d="M0 0h1305v1239l-1305 -2v-1237z" />
<glyph unicode="i" horiz-adv-x="837" d="M57 0v1229h617v-1229h-617z" />
<glyph unicode="j" d="M0 614h614v615h615v-615q0 -133 -46 -245.5t-128 -194.5t-194.5 -128t-246.5 -46q-133 0 -245.5 46t-194.5 128t-128 194.5t-46 245.5z" />
<glyph unicode="k" d="M0 0h1229l-615 614l619 615h-1233v-1229z" />
<glyph unicode="l" d="M0 0v1233h612v-653h617v-580h-1229z" />
<glyph unicode="m" d="M0 0v1229l614 -615l615 615v-1229h-1229z" />
<glyph unicode="n" d="M0 0h1229v1233h-615v-619l-614 615v-1229z" />
<glyph unicode="o" d="M0 614q0 133 46 246t128 195t194.5 128t245.5 46q135 0 248 -46t194 -127t127 -194t46 -248q0 -133 -46 -245.5t-128 -194.5t-194.5 -128t-246.5 -46q-133 0 -245.5 46t-194.5 128t-128 194.5t-46 245.5z" />
<glyph unicode="p" horiz-adv-x="1394" d="M0 0h614v410q147 0 262 33.5t194 91t119 131t40 153.5v7q0 74 -39 146q-41 75 -121 133t-194.5 93t-260.5 35h-614v-1233z" />
<glyph unicode="q" d="M0 614q0 -172 78 -317q80 -139 219 -219q135 -74 483 -74h29v-84h420v80v614q0 135 -46 248t-127 194t-193.5 127t-248.5 46q-133 0 -245.5 -46t-194.5 -128t-128 -194.5t-46 -246.5z" />
<glyph unicode="r" horiz-adv-x="1394" d="M0 0v1233h610q147 0 263 -36t196 -94.5t121 -132.5q39 -71 39 -144v-7q0 -104 -72 -201q-70 -94 -348 -206l395 -412h-1204z" />
<glyph unicode="s" d="M0 0v410l176 106q-86 82 -131 154.5t-45 148.5q0 193 108.5 301.5t301.5 108.5h819v-377l-197 -104q197 -166 197 -338q0 -193 -108.5 -301.5t-301.5 -108.5h-819z" />
<glyph unicode="t" horiz-adv-x="1396" d="M0 688v545h1233v-545h-322v-688h-612v688h-299z" />
<glyph unicode="u" d="M0 614q0 -133 46 -245.5t128 -194.5t194.5 -128t245.5 -46t246 46t195 128t128 194.5t46 245.5v615h-1229v-615z" />
<glyph unicode="v" horiz-adv-x="1390" d="M0 1229l1227 -2l-613 -1227z" />
<glyph unicode="w" d="M0 0l614 614l615 -614v1229h-1229v-1229z" />
<glyph unicode="x" horiz-adv-x="1417" d="M0 0l449 600l-449 633h1253l-473 -633l449 -600h-1229z" />
<glyph unicode="y" d="M0 0h614l615 1229h-1229l410 -819h-410v-410z" />
<glyph unicode="z" d="M0 0h1229v410l-176 106q86 82 131 154.5t49 148.5v410h-1233v-377l197 -104q-197 -166 -197 -338v-410z" />
<glyph unicode="{" horiz-adv-x="778" d="M0 614q0 -133 46 -245.5t128 -194.5t194.5 -128t245.5 -46v1229q-133 0 -245.5 -46t-194.5 -128t-128 -194.5t-46 -246.5z" />
<glyph unicode="|" horiz-adv-x="573" d="M0 -205h410v1639h-410v-1639z" />
<glyph unicode="}" horiz-adv-x="778" d="M0 0q133 0 245.5 46t194.5 128t128 194.5t46 245.5t-46 246t-128 195t-194.5 128t-245.5 46v-1229z" />
<glyph unicode="~" horiz-adv-x="778" d="M0 819v410l410 -205v205h204v-410q-35 -2 -67 -2h-60h-102h-166h-108h-56h-28q-12 0 -27 2z" />
<glyph unicode="&#xa1;" horiz-adv-x="573" d="M0 0v614h410v-614h-410zM0 1024q0 37 17.5 74t46 66.5t65.5 47t76 17.5q37 0 73.5 -17.5t66.5 -47t47.5 -66.5t17.5 -74q0 -39 -17.5 -76t-47.5 -65.5t-66.5 -46t-73.5 -17.5q-39 0 -76 17.5t-65.5 46t-46 65.5t-17.5 76z" />
<glyph unicode="&#xa2;" horiz-adv-x="1396" d="M10 575l10 168q0 47 13.5 85t48.5 102q80 141 219 219q53 31 104.5 49.5t63.5 26.5v205h410v-201h354v-1229h-354v-197h-410v205l-20 6q-72 10 -125.5 34t-96.5 58.5t-77.5 83t-67.5 107.5q-39 72 -54.5 140.5t-17.5 137.5z" />
<glyph unicode="&#xa4;" horiz-adv-x="1419" d="M0 0l276 369q-59 51 -92.5 117.5t-33.5 144.5q0 68 27.5 130t76.5 111l-254 361h1255l-270 -361q51 -49 80 -110.5t29 -130.5q0 -78 -37 -146.5t-101 -122.5l273 -362h-1229zM422 637q0 -66 56.5 -111t137.5 -45q41 0 77 12.5t62.5 33t42 49t15.5 61.5t-15.5 61.5t-42 50 t-62.5 34t-77 12.5t-76.5 -12.5t-61 -34t-41 -50t-15.5 -61.5z" />
<glyph unicode="&#xa5;" horiz-adv-x="1542" d="M0 0h614l58 115h706v409h-504l76 152h428v409h-223l74 144h-1229l410 -819h-410v-410z" />
<glyph unicode="&#xa6;" horiz-adv-x="778" d="M0 -207h608v787h-608v-787zM4 688h610v748h-610v-748z" />
<glyph unicode="&#xa7;" d="M0 0h819q193 0 301.5 108.5t108.5 301.5q0 113 -33 187.5t-94 121.5q-14 51 -51 100h178v410h-819q-193 0 -301.5 -108.5t-108.5 -301.5q0 -70 38 -137.5t105 -122.5q16 -80 74 -149h-217v-410zM387 606q0 43 19.5 82t54.5 68.5t80 46t98 16.5q51 0 98 -16.5t81 -46 t54.5 -68.5t20.5 -82t-20.5 -82t-54.5 -67.5t-81 -45t-98 -16.5q-53 0 -98 16.5t-80 45t-54.5 67.5t-19.5 82z" />
<glyph unicode="&#xa8;" horiz-adv-x="1085" d="M0 1022q0 -39 17.5 -76t47 -65.5t66.5 -46t74 -17.5q39 0 75.5 17.5t65.5 46t46.5 65.5t17.5 76q0 37 -17.5 74t-46.5 66.5t-65.5 47t-75.5 17.5q-37 0 -74 -17.5t-66.5 -47t-47 -66.5t-17.5 -74zM512 1022q0 -39 17.5 -76t47 -65.5t66.5 -46t74 -17.5q39 0 75.5 17.5 t65.5 46t46.5 65.5t17.5 76q0 37 -17.5 74t-46.5 66.5t-65.5 47t-75.5 17.5q-37 0 -74 -17.5t-66.5 -47t-47 -66.5t-17.5 -74z" />
<glyph unicode="&#xa9;" horiz-adv-x="2895" d="M0 741l193 37l-103 127l21 107l213 -17q0 250 82 250h8l200 -74q123 184 217 222l164 -111l324 164l74 -53l-21 -58l21 -16l360 74l127 -21l-16 -102h430l37 -37q0 -98 -74 -111l364 -90q0 -8 2.5 -14t2.5 -14q0 -86 -132 -99q238 -90 238 -139v-4l-37 -74h-164l111 -147 q0 -8 2 -16.5t2 -16.5q0 -66 -61 -78l-181 37l-16 -217q-25 -37 -74 -37q-74 0 -184 74l-176 -197l-90 -16l-111 102l-344 -176l-53 16v111l-451 -74l-57 37l20 86l-475 37v74l58 53l-287 57q-53 0 -53 70l102 90l-197 94zM53 705l307 -164l-196 -90l430 -91l-143 -110 l507 -21l-53 -118l451 90l53 -74l-16 -74l360 176l164 -102l184 213l230 -74l20 258l234 -37q2 8 3 13l1 4q0 49 -148 221l238 16l-21 37l-291 144l181 53h20l-20 37l-418 94l147 102h-487l37 127l-471 -65l-21 102l-37 21l-323 -160l-144 102l-200 -213q-25 -12 -37 -12 q-74 0 -180 86l-37 -254l-238 16l25 -73l123 -160zM451 537l32 327l58 8l-17 -315zM573 692q1 152 230 185l-4 -74q-14 8 -33 8q-49 0 -86 -49q-49 -61 -49 -127q0 -61 69 -62q45 0 62 9l4 -58q-25 -8 -66 -8q-98 0 -122 135q0 12 -2.5 24.5t-2.5 16.5zM831 594 q0 201 119 274l12 3l5 1h16q106 1 131 -110q-29 -221 -119 -221q-16 0 -30.5 -2t-22.5 -2q-90 0 -111 57zM889 672q0 -78 57 -78q35 0 86 33q12 29 18.5 49.5t6.5 40.5q0 27 -8 41q-25 41 -62 41q-57 0 -94 -99q-2 -10 -3 -17t-1 -11zM1151 852l184 -201l13 221l57 -16v-315 q-78 0 -197 159v-159l-49 -4zM1462 545l37 327l57 17l-16 -316zM1593 569q12 160 131 316q14 8 45 8q61 0 78 -98l4 -238l-36 12q-37 74 -74 74q-45 0 -82 -74h-66zM1696 709h98l-37 106zM1905 868l188 -200l12 221l54 -21v-315q-78 0 -197 156v-152l-45 -12zM2204 520 l45 37l45 -20l-53 -54zM2232 643l17 246l73 -21l-36 -237z" />
<glyph unicode="&#xaa;" horiz-adv-x="780" d="M0 618h283v209q6 27 22 27q14 0 25 -25v-211h286l-309 617z" />
<glyph unicode="&#xab;" horiz-adv-x="1064" d="M0 610l410 410v-819zM492 610l409 410v-819z" />
<glyph unicode="&#xac;" horiz-adv-x="1183" d="M0 410v409h1020v-557q0 -39 -17.5 -75.5t-46 -65.5t-65.5 -46.5t-76 -17.5q-37 0 -73.5 17.5t-66.5 46.5t-47.5 65.5t-17.5 75.5v148h-610z" />
<glyph unicode="&#xad;" horiz-adv-x="886" d="M0 408v409h723v-407z" />
<glyph unicode="&#xae;" horiz-adv-x="2895" d="M0 741l16 -90l197 -94l-102 -90q0 -70 53 -70l287 -57l-58 -53v-74l475 -37l-20 -86l57 -37l451 74v-111l53 -16l344 176l111 -102l90 16l176 197q111 -74 184 -74q49 0 74 37l16 217l181 -37q61 12 61 78q0 8 -2 16t-2 17l-111 147h164l37 74v4q0 49 -238 139 q131 12 132 99q0 8 -2.5 14t-2.5 14l-364 90q74 12 74 111l-37 37h-430l16 102l-127 21l-360 -74l-21 16l21 58l-74 53l-324 -164l-164 111q-96 -33 -217 -222l-200 74h-8q-82 0 -82 -250l-213 17l-21 -107l103 -127zM451 537l32 327l58 8l-17 -315zM573 692q1 152 230 185 l-4 -74q-14 8 -33 8q-49 0 -86 -49q-49 -61 -49 -127q0 -61 69 -62q37 0 62 9l4 -58q-25 -8 -66 -8q-98 0 -122 135q0 12 -2.5 24.5t-2.5 16.5zM831 594q0 201 119 274l12 3l5 1h16q106 1 131 -110q-29 -221 -119 -221q-16 0 -30.5 -2t-22.5 -2q-90 0 -111 57zM889 672 q0 -78 57 -78q35 0 86 33q12 29 18.5 49.5t6.5 40.5q0 27 -8 41q-25 41 -62 41q-57 0 -94 -99q-2 -10 -3 -17t-1 -11zM1151 852l184 -201l13 221l57 -16v-315q-78 0 -197 159v-159l-49 -4zM1462 545l37 327l57 17l-16 -316zM1593 569q12 160 131 316q14 8 45 8q61 0 78 -98 l4 -238l-36 12q-37 74 -74 74q-45 0 -82 -74h-66zM1696 709h98l-37 106zM1905 868l188 -200l12 221l54 -21v-315q-78 0 -197 156v-152l-45 -12zM2204 520l45 37l45 -20l-53 -54zM2232 643l17 246l73 -21l-36 -237z" />
<glyph unicode="&#xaf;" horiz-adv-x="1597" d="M0 1602h1434v204h-1434v-204z" />
<glyph unicode="&#xb0;" horiz-adv-x="776" d="M8 963l31 120q41 72 108 111q63 39 160 39q86 0 158 -41q72 -37 108 -109q37 -61 37 -112v-8v-58q0 -55 -39 -131q-37 -76 -108 -117q-63 -39 -158 -39q-90 0 -159.5 39t-104.5 115q-8 16 -14.5 42t-10.5 53.5t-6 53t-2 42.5z" />
<glyph unicode="&#xb1;" horiz-adv-x="1187" d="M0 0v299h1024v-299h-1024zM0 635v305h307v205h410v-205h307v-305h-307v-205h-410v205h-307z" />
<glyph unicode="&#xb2;" horiz-adv-x="780" d="M0 621h614v204h-307q74 0 131.5 17.5t96 45t59 64.5t20.5 78q0 39 -20.5 76t-60 65.5t-97 46t-129.5 17.5h-307v-188h229q39 -25 0 -56h-229v-166v-204z" />
<glyph unicode="&#xb3;" horiz-adv-x="778" d="M0 614v154h207q20 12 20 27q0 12 -20 24h-207v219h201q45 25 0 49h-201v148h598l-236 -272h25q117 0 167 -42t60 -153q0 -154 -307 -154h-307z" />
<glyph unicode="&#xb4;" horiz-adv-x="571" d="M0 819l408 414h-408v-414z" />
<glyph unicode="&#xb5;" d="M0 1233l614 -1233h615v410h-410l410 823h-1229z" />
<glyph unicode="&#xb6;" d="M0 948q0 285 614 285h611v-1583h-817v1052q-408 47 -408 246z" />
<glyph unicode="&#xb7;" horiz-adv-x="573" d="M0 713q0 37 17.5 73.5t47 66.5t66.5 47.5t74 17.5q39 0 75.5 -17.5t65.5 -47.5t46.5 -66.5t17.5 -73.5q0 -39 -17.5 -76t-46.5 -65.5t-65.5 -46t-75.5 -17.5q-37 0 -74 17.5t-66.5 46t-47 65.5t-17.5 76z" />
<glyph unicode="&#xb8;" horiz-adv-x="571" d="M0 -348h408v414z" />
<glyph unicode="&#xb9;" horiz-adv-x="368" d="M0 621h205v614h-205v-614z" />
<glyph unicode="&#xba;" horiz-adv-x="778" d="M0 926q0 -68 22.5 -124.5t63.5 -97t97.5 -63.5t123.5 -23q66 0 122 23t97 63.5t64.5 97t23.5 124.5t-22.5 124t-63.5 97t-97 63.5t-124 22.5t-124 -23.5t-97 -64.5t-63.5 -97.5t-22.5 -121.5z" />
<glyph unicode="&#xbb;" horiz-adv-x="1064" d="M0 201l410 409l-410 410v-819zM492 201l409 409l-409 410v-819z" />
<glyph unicode="&#xbc;" horiz-adv-x="1488" d="M0 612v615h205v-615h-205zM121 0l379 1229h409l-409 -1229h-379zM711 205v205l409 204h205v-614h-205v205h-409z" />
<glyph unicode="&#xbd;" horiz-adv-x="1554" d="M0 612v615h205v-615h-205zM121 0l379 1229h409l-409 -1229h-379zM774 0v205v409h307q72 0 129.5 -17t97.5 -46t60.5 -65.5t20.5 -75.5q0 -41 -20.5 -78t-59.5 -64.5t-96.5 -45t-131.5 -17.5h308v-205h-615z" />
<glyph unicode="&#xbe;" horiz-adv-x="1814" d="M0 612v621h598l-236 -272h25q117 0 167 -42t60 -153q0 -154 -307 -154h-307zM446 0l379 1229h410l-410 -1229h-379zM1036 205v205l410 204h205v-614h-205v205h-410z" />
<glyph unicode="&#xbf;" d="M0 307q0 113 38 176.5t112 91.5q61 27 174 33q98 6 290 6h615v-614h-615q-193 0 -290 6q-49 2 -92.5 10.5t-79.5 22.5q-76 29 -114 92.5t-38 175.5zM819 1024q0 37 17.5 74t46 66.5t65.5 47t76 17.5q37 0 74 -17.5t66.5 -47t47 -66.5t17.5 -74q0 -39 -17.5 -76t-47 -65.5 t-66.5 -46t-74 -17.5q-39 0 -76 17.5t-65.5 46t-46 65.5t-17.5 76z" />
<glyph unicode="&#xc0;" horiz-adv-x="1398" d="M0 0h1235l-621 1233zM365 1794l407 -416v416h-407z" />
<glyph unicode="&#xc1;" horiz-adv-x="1398" d="M0 0h1235l-621 1233zM457 1378l407 416h-407v-416z" />
<glyph unicode="&#xc2;" horiz-adv-x="1398" d="M0 0h1235l-621 1233zM205 1384h819l-410 410z" />
<glyph unicode="&#xc3;" horiz-adv-x="1398" d="M0 0h1235l-621 1233zM307 1389h615v409h-205v-205l-410 205v-409z" />
<glyph unicode="&#xc4;" horiz-adv-x="1398" d="M0 0h1235l-621 1233zM156 1589q0 -39 17 -75.5t47 -65.5t67 -46.5t73 -17.5q39 0 76 17.5t65.5 46.5t46 65.5t17.5 75.5q0 37 -17.5 74t-46 66.5t-65.5 47t-76 17.5q-37 0 -73.5 -17.5t-66.5 -47t-47 -66.5t-17 -74zM668 1589q0 -39 17 -75.5t47 -65.5t67 -46.5t73 -17.5 q39 0 76 17.5t65.5 46.5t46 65.5t17.5 75.5q0 37 -17.5 74t-46 66.5t-65.5 47t-76 17.5q-37 0 -73.5 -17.5t-66.5 -47t-47 -66.5t-17 -74z" />
<glyph unicode="&#xc5;" horiz-adv-x="1398" d="M0 0h1235l-621 1233zM410 1589q0 -39 17 -75.5t47 -65.5t67 -46.5t73 -17.5q39 0 76 17.5t65.5 46.5t46 65.5t17.5 75.5q0 37 -17.5 74t-46 66.5t-65.5 47t-76 17.5q-37 0 -73.5 -17.5t-66.5 -47t-47 -66.5t-17 -74z" />
<glyph unicode="&#xc6;" horiz-adv-x="2299" d="M0 0l614 1233l293 -582v578h613v-410h303v-446h313v-373h-2136z" />
<glyph unicode="&#xc7;" horiz-adv-x="1394" d="M2 614q0 119 40 230.5t118 196.5t192.5 136.5t263.5 51.5h615v-1229h-404v-348h-407l342 348h-146q-147 -4 -261.5 48t-193.5 139t-120 199t-39 228z" />
<glyph unicode="&#xc8;" d="M0 0v1233h612v-418h308v-387h309v-428h-1229zM291 1798h407v-416z" />
<glyph unicode="&#xc9;" d="M0 0v1233h612v-418h308v-387h309v-428h-1229zM530 1382v416h408z" />
<glyph unicode="&#xca;" d="M0 0v1233h612v-418h308v-387h309v-428h-1229zM197 1384l409 410l410 -410h-819z" />
<glyph unicode="&#xcb;" d="M0 0v1233h612v-418h308v-387h309v-428h-1229zM119 1589q0 37 17.5 74t47 66.5t66.5 47t74 17.5q39 0 75.5 -17.5t65.5 -47t46 -66.5t17 -74q0 -39 -17 -75.5t-46 -65.5t-66 -46.5t-75 -17.5q-37 0 -74 17.5t-66.5 46.5t-47 65.5t-17.5 75.5zM631 1589q0 37 17.5 74 t47 66.5t66.5 47t74 17.5q39 0 75.5 -17.5t65.5 -47t46 -66.5t17 -74q0 -39 -17 -75.5t-46 -65.5t-66 -46.5t-75 -17.5q-37 0 -74 17.5t-66.5 46.5t-47 65.5t-17.5 75.5z" />
<glyph unicode="&#xcc;" horiz-adv-x="780" d="M0 0h616v1229h-616v-1229zM82 1794l407 -416v416h-407z" />
<glyph unicode="&#xcd;" horiz-adv-x="780" d="M0 0h616v1229h-616v-1229zM137 1378l408 416h-408v-416z" />
<glyph unicode="&#xce;" horiz-adv-x="817" d="M-45 1384l410 410l409 -410h-819zM49 0v1229h617v-1229h-617z" />
<glyph unicode="&#xcf;" horiz-adv-x="817" d="M-102 1589q0 37 17 74t47 66.5t67 47t73 17.5q39 0 76 -17.5t65.5 -47t46 -66.5t17.5 -74q0 -39 -17.5 -75.5t-46 -65.5t-65.5 -46.5t-76 -17.5q-37 0 -73.5 17.5t-66.5 46.5t-47 65.5t-17 75.5zM49 0v1229h617v-1229h-617zM410 1589q0 37 17 74t47 66.5t67 47t73 17.5 q39 0 76 -17.5t65.5 -47t46 -66.5t17.5 -74q0 -39 -17.5 -75.5t-46 -65.5t-65.5 -46.5t-76 -17.5q-37 0 -73.5 17.5t-66.5 46.5t-47 65.5t-17 75.5z" />
<glyph unicode="&#xd0;" horiz-adv-x="1734" d="M0 416h340v-416h614q147 -4 262 48t194 139t120 199t39 228q0 119 -40 230.5t-117 196.5t-192.5 136.5t-265.5 51.5h-614v-404h-340v-409z" />
<glyph unicode="&#xd1;" d="M0 0v1229l614 -615v619h615v-1233h-1229zM303 1389v409l410 -205v205h205v-409h-615z" />
<glyph unicode="&#xd2;" d="M0 614q0 -133 46 -245.5t128 -194.5t194.5 -128t245.5 -46t246 46t195 128t128 194.5t46 245.5q0 135 -46 248t-127 194t-193.5 127t-248.5 46q-133 0 -245.5 -46t-194.5 -128t-128 -194.5t-46 -246.5zM373 1794l407 -416v416h-407z" />
<glyph unicode="&#xd3;" d="M0 614q0 -133 46 -245.5t128 -194.5t194.5 -128t245.5 -46t246 46t195 128t128 194.5t46 245.5q0 135 -46 248t-127 194t-193.5 127t-248.5 46q-133 0 -245.5 -46t-194.5 -128t-128 -194.5t-46 -246.5zM469 1378l408 416h-408v-416z" />
<glyph unicode="&#xd4;" d="M0 614q0 -133 46 -245.5t128 -194.5t194.5 -128t245.5 -46t246 46t195 128t128 194.5t46 245.5q0 135 -46 248t-127 194t-193.5 127t-248.5 46q-133 0 -245.5 -46t-194.5 -128t-128 -194.5t-46 -246.5zM209 1384h819l-410 410z" />
<glyph unicode="&#xd5;" d="M0 614q0 -133 46 -245.5t128 -194.5t194.5 -128t245.5 -46t246 46t195 128t128 194.5t46 245.5q0 135 -46 248t-127 194t-193.5 127t-248.5 46q-133 0 -245.5 -46t-194.5 -128t-128 -194.5t-46 -246.5zM307 1389h615v409h-205v-205l-410 205v-409z" />
<glyph unicode="&#xd6;" d="M0 614q0 -133 46 -245.5t128 -194.5t194.5 -128t245.5 -46t246 46t195 128t128 194.5t46 245.5q0 135 -46 248t-127 194t-193.5 127t-248.5 46q-133 0 -245.5 -46t-194.5 -128t-128 -194.5t-46 -246.5zM160 1589q0 -39 17.5 -75.5t47 -65.5t66.5 -46.5t74 -17.5 q39 0 75.5 17.5t65.5 46.5t46 65.5t17 75.5q0 37 -17 74t-46 66.5t-66 47t-75 17.5q-37 0 -74 -17.5t-66.5 -47t-47 -66.5t-17.5 -74zM672 1589q0 -39 17.5 -75.5t47 -65.5t66.5 -46.5t74 -17.5q39 0 75.5 17.5t65.5 46.5t46 65.5t17 75.5q0 37 -17 74t-46 66.5t-66 47 t-75 17.5q-37 0 -74 -17.5t-66.5 -47t-47 -66.5t-17.5 -74z" />
<glyph unicode="&#xd7;" horiz-adv-x="1419" d="M0 0h1229l-449 600l475 633h-1255l449 -633z" />
<glyph unicode="&#xd8;" d="M0 614q0 -133 46 -245.5t128 -194.5t194.5 -128t245.5 -46q135 0 248 46t194 127t127 193.5t46 247.5q0 133 -46 246t-128 195t-194.5 128t-246.5 46q-133 0 -245.5 -46t-194.5 -128t-128 -194.5t-46 -246.5zM205 819h819l-410 -614z" />
<glyph unicode="&#xd9;" d="M0 614v615l1229 -2v-613q0 -133 -46 -245.5t-128 -194.5t-194.5 -128t-246.5 -46q-133 0 -245.5 46t-194.5 128t-128 194.5t-46 245.5zM365 1794h407v-416z" />
<glyph unicode="&#xda;" d="M0 614v615l1229 -2v-613q0 -133 -46 -245.5t-128 -194.5t-194.5 -128t-246.5 -46q-133 0 -245.5 46t-194.5 128t-128 194.5t-46 245.5zM457 1378v416h407z" />
<glyph unicode="&#xdb;" d="M0 614v615l1229 2v-617q0 -133 -46 -245.5t-128 -194.5t-194.5 -128t-246.5 -46q-133 0 -245.5 46t-194.5 128t-128 194.5t-46 245.5zM197 1384l409 410l410 -410h-819z" />
<glyph unicode="&#xdc;" d="M0 614v615l1229 2v-617q0 -133 -46 -245.5t-128 -194.5t-194.5 -128t-246.5 -46q-133 0 -245.5 46t-194.5 128t-128 194.5t-46 245.5zM156 1589q0 37 17 74t47 66.5t67 47t73 17.5q39 0 76 -17.5t65.5 -47t46 -66.5t17.5 -74q0 -39 -17.5 -75.5t-46 -65.5t-65.5 -46.5 t-76 -17.5q-37 0 -73.5 17.5t-66.5 46.5t-47 65.5t-17 75.5zM668 1589q0 37 17 74t47 66.5t67 47t73 17.5q39 0 76 -17.5t65.5 -47t46 -66.5t17.5 -74q0 -39 -17.5 -75.5t-46 -65.5t-65.5 -46.5t-76 -17.5q-37 0 -73.5 17.5t-66.5 46.5t-47 65.5t-17 75.5z" />
<glyph unicode="&#xdd;" horiz-adv-x="1423" d="M0 1233h1260l-340 -545v-688h-619v688zM457 1378v416h407z" />
<glyph unicode="&#xde;" horiz-adv-x="1261" d="M0 -2h623v203q145 0 237 35.5t145.5 94t73 133.5t19.5 152q0 80 -19.5 153t-73 127t-147.5 87t-244 33v217h-614v-1235z" />
<glyph unicode="&#xdf;" d="M0 -348v1577h614q614 0 615 -307q0 -76 -21.5 -133.5t-77 -96.5t-148.5 -59.5t-237 -22.5q143 -2 236.5 -22.5t149 -58t77 -93t21.5 -129.5q0 -307 -611 -307v-348h-618z" />
<glyph unicode="&#xe0;" horiz-adv-x="1398" d="M0 0h1235l-621 1233zM365 1794l407 -416v416h-407z" />
<glyph unicode="&#xe1;" horiz-adv-x="1398" d="M0 0h1235l-621 1233zM457 1378l407 416h-407v-416z" />
<glyph unicode="&#xe2;" horiz-adv-x="1398" d="M0 0h1235l-621 1233zM205 1384h819l-410 410z" />
<glyph unicode="&#xe3;" horiz-adv-x="1398" d="M0 0h1235l-621 1233zM307 1389h615v409h-205v-205l-410 205v-409z" />
<glyph unicode="&#xe4;" horiz-adv-x="1398" d="M0 0h1235l-621 1233zM156 1589q0 -39 17 -75.5t47 -65.5t67 -46.5t73 -17.5q39 0 76 17.5t65.5 46.5t46 65.5t17.5 75.5q0 37 -17.5 74t-46 66.5t-65.5 47t-76 17.5q-37 0 -73.5 -17.5t-66.5 -47t-47 -66.5t-17 -74zM668 1589q0 -39 17 -75.5t47 -65.5t67 -46.5t73 -17.5 q39 0 76 17.5t65.5 46.5t46 65.5t17.5 75.5q0 37 -17.5 74t-46 66.5t-65.5 47t-76 17.5q-37 0 -73.5 -17.5t-66.5 -47t-47 -66.5t-17 -74z" />
<glyph unicode="&#xe5;" horiz-adv-x="1398" d="M0 0h1235l-621 1233zM410 1589q0 -39 17 -75.5t47 -65.5t67 -46.5t73 -17.5q39 0 76 17.5t65.5 46.5t46 65.5t17.5 75.5q0 37 -17.5 74t-46 66.5t-65.5 47t-76 17.5q-37 0 -73.5 -17.5t-66.5 -47t-47 -66.5t-17 -74z" />
<glyph unicode="&#xe6;" horiz-adv-x="2299" d="M0 0l614 1233l293 -582v578h613v-410h303v-446h313v-373h-2136z" />
<glyph unicode="&#xe7;" horiz-adv-x="1394" d="M2 614q0 119 40 230.5t118 196.5t192.5 136.5t263.5 51.5h615v-1229h-404v-348h-407l342 348h-146q-147 -4 -261.5 48t-193.5 139t-120 199t-39 228z" />
<glyph unicode="&#xe8;" d="M0 0v1233h612v-418h308v-387h309v-428h-1229zM291 1798h407v-416z" />
<glyph unicode="&#xe9;" d="M0 0v1233h612v-418h308v-387h309v-428h-1229zM530 1382v416h408z" />
<glyph unicode="&#xea;" d="M0 0v1233h612v-418h308v-387h309v-428h-1229zM197 1384l409 410l410 -410h-819z" />
<glyph unicode="&#xeb;" d="M0 0v1233h612v-418h308v-387h309v-428h-1229zM119 1589q0 37 17.5 74t47 66.5t66.5 47t74 17.5q39 0 75.5 -17.5t65.5 -47t46 -66.5t17 -74q0 -39 -17 -75.5t-46 -65.5t-66 -46.5t-75 -17.5q-37 0 -74 17.5t-66.5 46.5t-47 65.5t-17.5 75.5zM631 1589q0 37 17.5 74 t47 66.5t66.5 47t74 17.5q39 0 75.5 -17.5t65.5 -47t46 -66.5t17 -74q0 -39 -17 -75.5t-46 -65.5t-66 -46.5t-75 -17.5q-37 0 -74 17.5t-66.5 46.5t-47 65.5t-17.5 75.5z" />
<glyph unicode="&#xec;" horiz-adv-x="780" d="M0 0h616v1229h-616v-1229zM82 1794l407 -416v416h-407z" />
<glyph unicode="&#xed;" horiz-adv-x="780" d="M0 0h616v1229h-616v-1229zM137 1378l408 416h-408v-416z" />
<glyph unicode="&#xee;" horiz-adv-x="817" d="M-45 1384l410 410l409 -410h-819zM49 0v1229h617v-1229h-617z" />
<glyph unicode="&#xef;" horiz-adv-x="817" d="M-102 1589q0 37 17 74t47 66.5t67 47t73 17.5q39 0 76 -17.5t65.5 -47t46 -66.5t17.5 -74q0 -39 -17.5 -75.5t-46 -65.5t-65.5 -46.5t-76 -17.5q-37 0 -73.5 17.5t-66.5 46.5t-47 65.5t-17 75.5zM49 0v1229h617v-1229h-617zM410 1589q0 37 17 74t47 66.5t67 47t73 17.5 q39 0 76 -17.5t65.5 -47t46 -66.5t17.5 -74q0 -39 -17.5 -75.5t-46 -65.5t-65.5 -46.5t-76 -17.5q-37 0 -73.5 17.5t-66.5 46.5t-47 65.5t-17 75.5z" />
<glyph unicode="&#xf0;" d="M0 307q0 100 6 174t19.5 127.5t35 88t52.5 57.5q66 47 168 55q51 4 134 7t199 3l-409 410h614l410 -410v-512q0 -307 -615 -307q-614 0 -614 307z" />
<glyph unicode="&#xf1;" d="M0 0v1229l614 -615v619h615v-1233h-1229zM303 1389v409l410 -205v205h205v-409h-615z" />
<glyph unicode="&#xf2;" d="M0 614q0 -133 46 -245.5t128 -194.5t194.5 -128t245.5 -46t246 46t195 128t128 194.5t46 245.5q0 135 -46 248t-127 194t-193.5 127t-248.5 46q-133 0 -245.5 -46t-194.5 -128t-128 -194.5t-46 -246.5zM373 1794l407 -416v416h-407z" />
<glyph unicode="&#xf3;" d="M0 614q0 -133 46 -245.5t128 -194.5t194.5 -128t245.5 -46t246 46t195 128t128 194.5t46 245.5q0 135 -46 248t-127 194t-193.5 127t-248.5 46q-133 0 -245.5 -46t-194.5 -128t-128 -194.5t-46 -246.5zM469 1378l408 416h-408v-416z" />
<glyph unicode="&#xf4;" d="M0 614q0 -133 46 -245.5t128 -194.5t194.5 -128t245.5 -46t246 46t195 128t128 194.5t46 245.5q0 135 -46 248t-127 194t-193.5 127t-248.5 46q-133 0 -245.5 -46t-194.5 -128t-128 -194.5t-46 -246.5zM209 1384h819l-410 410z" />
<glyph unicode="&#xf5;" d="M0 614q0 -133 46 -245.5t128 -194.5t194.5 -128t245.5 -46t246 46t195 128t128 194.5t46 245.5q0 135 -46 248t-127 194t-193.5 127t-248.5 46q-133 0 -245.5 -46t-194.5 -128t-128 -194.5t-46 -246.5zM307 1389h615v409h-205v-205l-410 205v-409z" />
<glyph unicode="&#xf6;" d="M0 614q0 -133 46 -245.5t128 -194.5t194.5 -128t245.5 -46t246 46t195 128t128 194.5t46 245.5q0 135 -46 248t-127 194t-193.5 127t-248.5 46q-133 0 -245.5 -46t-194.5 -128t-128 -194.5t-46 -246.5zM160 1589q0 -39 17.5 -75.5t47 -65.5t66.5 -46.5t74 -17.5 q39 0 75.5 17.5t65.5 46.5t46 65.5t17 75.5q0 37 -17 74t-46 66.5t-66 47t-75 17.5q-37 0 -74 -17.5t-66.5 -47t-47 -66.5t-17.5 -74zM672 1589q0 -39 17.5 -75.5t47 -65.5t66.5 -46.5t74 -17.5q39 0 75.5 17.5t65.5 46.5t46 65.5t17 75.5q0 37 -17 74t-46 66.5t-66 47 t-75 17.5q-37 0 -74 -17.5t-66.5 -47t-47 -66.5t-17.5 -74z" />
<glyph unicode="&#xf7;" horiz-adv-x="1435" d="M0 479l4 338h1268v-338h-1272zM434 205q0 39 17.5 75.5t47 65.5t66.5 46.5t74 17.5q39 0 76 -17.5t65.5 -46.5t46 -65.5t17.5 -75.5q0 -37 -17.5 -74t-46 -66.5t-65.5 -47t-76 -17.5q-37 0 -74 17.5t-66.5 47t-47 66.5t-17.5 74zM434 1100q0 39 17.5 75.5t47 65.5 t66.5 46.5t74 17.5q39 0 76 -17.5t65.5 -46.5t46 -65.5t17.5 -75.5q0 -37 -17.5 -74t-46 -66.5t-65.5 -47t-76 -17.5q-37 0 -74 17.5t-66.5 47t-47 66.5t-17.5 74z" />
<glyph unicode="&#xf8;" d="M0 614q0 -133 46 -245.5t128 -194.5t194.5 -128t245.5 -46q135 0 248 46t194 127t127 193.5t46 247.5q0 133 -46 246t-128 195t-194.5 128t-246.5 46q-133 0 -245.5 -46t-194.5 -128t-128 -194.5t-46 -246.5zM205 819h819l-410 -614z" />
<glyph unicode="&#xf9;" d="M0 614v615l1229 -2v-613q0 -133 -46 -245.5t-128 -194.5t-194.5 -128t-246.5 -46q-133 0 -245.5 46t-194.5 128t-128 194.5t-46 245.5zM365 1794h407v-416z" />
<glyph unicode="&#xfa;" d="M0 614v615l1229 -2v-613q0 -133 -46 -245.5t-128 -194.5t-194.5 -128t-246.5 -46q-133 0 -245.5 46t-194.5 128t-128 194.5t-46 245.5zM457 1378v416h407z" />
<glyph unicode="&#xfb;" d="M0 614v615l1229 2v-617q0 -133 -46 -245.5t-128 -194.5t-194.5 -128t-246.5 -46q-133 0 -245.5 46t-194.5 128t-128 194.5t-46 245.5zM197 1384l409 410l410 -410h-819z" />
<glyph unicode="&#xfc;" d="M0 614v615l1229 2v-617q0 -133 -46 -245.5t-128 -194.5t-194.5 -128t-246.5 -46q-133 0 -245.5 46t-194.5 128t-128 194.5t-46 245.5zM156 1589q0 37 17 74t47 66.5t67 47t73 17.5q39 0 76 -17.5t65.5 -47t46 -66.5t17.5 -74q0 -39 -17.5 -75.5t-46 -65.5t-65.5 -46.5 t-76 -17.5q-37 0 -73.5 17.5t-66.5 46.5t-47 65.5t-17 75.5zM668 1589q0 37 17 74t47 66.5t67 47t73 17.5q39 0 76 -17.5t65.5 -47t46 -66.5t17.5 -74q0 -39 -17.5 -75.5t-46 -65.5t-65.5 -46.5t-76 -17.5q-37 0 -73.5 17.5t-66.5 46.5t-47 65.5t-17 75.5z" />
<glyph unicode="&#xfd;" d="M0 0v410h410l-410 823h1229l-615 -1233h-614zM457 1378v416h407z" />
<glyph unicode="&#xfe;" horiz-adv-x="1261" d="M0 0v1235h623v-203q145 0 237 -35.5t145.5 -94t73 -133.5t19.5 -153q0 -80 -19.5 -152.5t-73 -126.5t-147.5 -87t-244 -33v-217h-614z" />
<glyph unicode="&#xff;" d="M0 0v410h410l-410 823h1229l-615 -1233h-614zM156 1589q0 37 17 74t47 66.5t67 47t73 17.5q39 0 76 -17.5t65.5 -47t46 -66.5t17.5 -74q0 -39 -17.5 -75.5t-46 -65.5t-65.5 -46.5t-76 -17.5q-37 0 -73.5 17.5t-66.5 46.5t-47 65.5t-17 75.5zM668 1589q0 37 17 74t47 66.5 t67 47t73 17.5q39 0 76 -17.5t65.5 -47t46 -66.5t17.5 -74q0 -39 -17.5 -75.5t-46 -65.5t-65.5 -46.5t-76 -17.5q-37 0 -73.5 17.5t-66.5 46.5t-47 65.5t-17 75.5z" />
<glyph unicode="&#x152;" horiz-adv-x="2301" d="M0 580l8 14q2 33 8.5 79t15.5 93t21.5 91t28.5 73q80 141 219 219t305 78h916v-412h307v-387h309v-428h-1520q-180 0 -318 78t-216 219q-80 141 -84 283z" />
<glyph unicode="&#x153;" horiz-adv-x="2301" d="M0 580l8 14q2 33 8.5 79t15.5 93t21.5 91t28.5 73q80 141 219 219t305 78h916v-412h307v-387h309v-428h-1520q-180 0 -318 78t-216 219q-80 141 -84 283z" />
<glyph unicode="&#x178;" horiz-adv-x="1423" d="M0 1233h1260l-340 -545v-688h-619v688zM156 1589q0 37 17 74t47 66.5t67 47t73 17.5q39 0 76 -17.5t65.5 -47t46 -66.5t17.5 -74q0 -39 -17.5 -75.5t-46 -65.5t-65.5 -46.5t-76 -17.5q-37 0 -73.5 17.5t-66.5 46.5t-47 65.5t-17 75.5zM668 1589q0 37 17 74t47 66.5t67 47 t73 17.5q39 0 76 -17.5t65.5 -47t46 -66.5t17.5 -74q0 -39 -17.5 -75.5t-46 -65.5t-65.5 -46.5t-76 -17.5q-37 0 -73.5 17.5t-66.5 46.5t-47 65.5t-17 75.5z" />
<glyph unicode="&#x2c6;" horiz-adv-x="983" d="M0 819h819l-409 410z" />
<glyph unicode="&#x2dc;" horiz-adv-x="778" d="M0 819v410l410 -205v205h204v-410q-4 0 -17 -1t-73 -1q-57 0 -180 1t-344 1z" />
<glyph unicode="&#x2000;" horiz-adv-x="903" />
<glyph unicode="&#x2001;" horiz-adv-x="1806" />
<glyph unicode="&#x2002;" horiz-adv-x="903" />
<glyph unicode="&#x2003;" horiz-adv-x="1806" />
<glyph unicode="&#x2004;" horiz-adv-x="602" />
<glyph unicode="&#x2005;" horiz-adv-x="451" />
<glyph unicode="&#x2006;" horiz-adv-x="301" />
<glyph unicode="&#x2007;" horiz-adv-x="301" />
<glyph unicode="&#x2008;" horiz-adv-x="225" />
<glyph unicode="&#x2009;" horiz-adv-x="361" />
<glyph unicode="&#x200a;" horiz-adv-x="100" />
<glyph unicode="&#x2010;" horiz-adv-x="1187" d="M0 410h1024v409h-1024v-409z" />
<glyph unicode="&#x2011;" horiz-adv-x="1187" d="M0 410h1024v409h-1024v-409z" />
<glyph unicode="&#x2012;" horiz-adv-x="1187" d="M0 410h1024v409h-1024v-409z" />
<glyph unicode="&#x2013;" horiz-adv-x="1187" d="M0 410h1024v409h-1024v-409z" />
<glyph unicode="&#x2014;" horiz-adv-x="1435" d="M0 408v409h1272v-409h-1272z" />
<glyph unicode="&#x2018;" horiz-adv-x="573" d="M0 1024v205h410v-205q0 -39 -17.5 -76t-47.5 -65.5t-66.5 -46t-73.5 -17.5q-39 0 -76 17.5t-65.5 46t-46 65.5t-17.5 76z" />
<glyph unicode="&#x2019;" horiz-adv-x="573" d="M0 819h410v205q0 39 -17.5 76t-46.5 65.5t-65.5 46t-75.5 17.5q-37 0 -74 -17.5t-66.5 -46t-47 -65.5t-17.5 -76v-205z" />
<glyph unicode="&#x201a;" horiz-adv-x="579" d="M0 -88q0 -35 3 -67.5t12.5 -58.5t26.5 -41t46 -15q39 0 95.5 27.5t107.5 68.5t88 88t37 86v221h-8q-4 37 -22.5 71t-46.5 60.5t-62.5 42t-71.5 15.5t-74 -17.5t-66.5 -46.5t-47 -65.5t-17.5 -75.5v-293z" />
<glyph unicode="&#x201c;" horiz-adv-x="1187" d="M0 1024v205h410v-205q0 -39 -17.5 -76t-46.5 -65.5t-65.5 -46t-75.5 -17.5q-37 0 -74 17.5t-66.5 46t-47 65.5t-17.5 76zM614 1024v205h410v-205q0 -39 -17.5 -76t-47 -65.5t-66.5 -46t-74 -17.5q-39 0 -75.5 17.5t-65.5 46t-46.5 65.5t-17.5 76z" />
<glyph unicode="&#x201d;" horiz-adv-x="1187" d="M0 819h410v205q0 39 -17.5 76t-46.5 65.5t-65.5 46t-75.5 17.5q-37 0 -74 -17.5t-66.5 -46t-47 -65.5t-17.5 -76v-205zM614 819h410v205q0 39 -17.5 76t-47 65.5t-66.5 46t-74 17.5q-39 0 -75.5 -17.5t-65.5 -46t-46.5 -65.5t-17.5 -76v-205z" />
<glyph unicode="&#x201e;" horiz-adv-x="1126" d="M0 -90q0 -35 3 -67.5t12.5 -58.5t26.5 -41t46 -15q39 0 95.5 27.5t107.5 68.5t88 88t37 86v221h-8q-4 37 -22.5 71t-46.5 60.5t-62.5 42t-71.5 15.5t-74 -17.5t-66.5 -46.5t-47 -65.5t-17.5 -75.5v-293zM547 -88q0 -35 3 -67.5t12 -58.5t26.5 -41t46.5 -15q39 0 95 27.5 t107.5 68.5t88.5 88t37 86v221h-9q-4 37 -22.5 71t-46 60.5t-62.5 42t-71 15.5q-37 0 -74 -17.5t-66.5 -46.5t-47 -65.5t-17.5 -75.5v-293z" />
<glyph unicode="&#x2022;" d="M0 614q0 133 46 246t128 195t194.5 128t245.5 46q135 0 248 -46t194 -127t127 -194t46 -248q0 -133 -46 -245.5t-128 -194.5t-194.5 -128t-246.5 -46q-133 0 -245.5 46t-194.5 128t-128 194.5t-46 245.5z" />
<glyph unicode="&#x2026;" horiz-adv-x="1662" d="M0 205q0 39 17.5 75.5t47 65.5t66.5 46.5t74 17.5q39 0 75.5 -17.5t65.5 -46.5t46.5 -65.5t17.5 -75.5q0 -37 -17.5 -74t-46.5 -66.5t-65.5 -47t-75.5 -17.5q-37 0 -74 17.5t-66.5 47t-47 66.5t-17.5 74zM539 205q0 39 17 75.5t47 65.5t67 46.5t73 17.5q39 0 76 -17.5 t65.5 -46.5t46 -65.5t17.5 -75.5q0 -37 -17.5 -74t-46 -66.5t-65.5 -47t-76 -17.5q-37 0 -73.5 17.5t-66.5 47t-47 66.5t-17 74zM1090 205q0 39 17 75.5t47 65.5t66.5 46.5t73.5 17.5q39 0 76 -17.5t65.5 -46.5t46 -65.5t17.5 -75.5q0 -37 -17.5 -74t-46 -66.5t-65.5 -47 t-76 -17.5q-37 0 -73.5 17.5t-66.5 47t-47 66.5t-17 74z" />
<glyph unicode="&#x202f;" horiz-adv-x="361" />
<glyph unicode="&#x2039;" horiz-adv-x="573" d="M0 610l410 410v-819z" />
<glyph unicode="&#x203a;" horiz-adv-x="573" d="M0 201l410 409l-410 410v-819z" />
<glyph unicode="&#x205f;" horiz-adv-x="451" />
<glyph unicode="&#x20ac;" horiz-adv-x="1564" d="M0 297v674h274q74 111 195 178q141 80 317 80h615v-1229h-615q-180 0 -318 78t-218 219h-250z" />
<glyph unicode="&#x2122;" horiz-adv-x="1462" d="M0 954v273h616v-273h-161v-344h-308v344h-147zM684 610v617l303 -262h10l301 260v-615h-614z" />
<glyph unicode="&#xe000;" horiz-adv-x="1228" d="M0 0v1229h1229v-1229h-1229z" />
</font>
</defs>
</svg>
